{"accessors" : [{"bufferView" : 0, "byteOffset" : 0, "componentType" : 5125, "count" : 750888, "type" : "SCALAR", "max" : [750887], "min" : [0]}, {"bufferView" : 1, "byteOffset" : 0, "componentType" : 5126, "count" : 750888, "type" : "VEC3", "max" : [141, 190, 90.5], "min" : [46, 11, 17.5]}], "asset" : {"generator" : "Aspose.3D 20.11", "version" : "2.0"}, "buffers" : [{"uri" : "buffer.bin", "byteLength" : 12014216}], "bufferViews" : [{"buffer" : 0, "byteOffset" : 0, "byteLength" : 3003552, "target" : 34963}, {"buffer" : 0, "byteOffset" : 3003556, "byteLength" : 9010656, "byteStride" : 12, "target" : 34962}], "meshes" : [{"primitives" : [{"attributes" : {"POSITION" : 1}, "indices" : 0, "mode" : 4}]}], "nodes" : [{"mesh" : 0, "name" : ""}], "scene" : 0, "scenes" : [{"nodes" : [0]}]}